# Blender 4.0.1
# www.blender.org
mtllib FloorCeiling.mtl
o Cube
v 5.000000 0.250000 -5.000000
v 5.000000 -0.250000 -5.000000
v 5.000000 0.250000 5.000000
v 5.000000 -0.250000 5.000000
v -5.000000 0.250000 -5.000000
v -5.000000 -0.250000 -5.000000
v -5.000000 0.250000 5.000000
v -5.000000 -0.250000 5.000000
vn -0.0000 1.0000 -0.0000
vn -0.0000 -1.0000 -0.0000
vt 1.003432 -0.000499
vt 0.001274 1.001659
vt 0.001274 -0.000499
vt 1.000792 0.002030
vt 1.000792 1.000426
vt 0.002396 1.000426
vt 1.003432 1.001659
vt 0.002396 0.002030
s 0
usemtl Bottom
f 2/4/2 4/5/2 8/6/2
f 2/4/2 8/6/2 6/8/2
usemtl Top
f 5/1/1 3/2/1 1/3/1
f 5/1/1 7/7/1 3/2/1
