# Blender 4.0.1
# www.blender.org
mtllib Wall.mtl
o Cube
v -0.250000 0.000000 5.000000
v -0.250000 10.000000 5.000000
v -0.250000 0.000000 -5.000000
v -0.250000 10.000000 -5.000000
v 0.250000 0.000000 5.000000
v 0.250000 10.000000 5.000000
v 0.250000 0.000000 -5.000000
v 0.250000 10.000000 -5.000000
vn -1.0000 -0.0000 -0.0000
vn -0.0000 -0.0000 -1.0000
vn 1.0000 -0.0000 -0.0000
vn -0.0000 -0.0000 1.0000
vn -0.0000 -1.0000 -0.0000
vn -0.0000 1.0000 -0.0000
vt 0.000143 0.000195
vt 0.999609 0.998882
vt 0.000533 0.999272
vt 0.499242 0.348570
vt 0.457657 0.403770
vt 0.457657 0.348570
vt 0.995031 1.005058
vt 0.004433 -0.000424
vt 1.002875 0.007426
vt 0.497070 0.850282
vt 0.458036 0.902594
vt 0.458036 0.850282
vt 0.183483 0.542527
vt 0.143887 0.587461
vt 0.143887 0.542527
vt 0.685473 0.656011
vt 0.644876 0.717360
vt 0.644876 0.656011
vt 0.999220 -0.000195
vt 0.499242 0.403770
vt -0.003411 0.997207
vt 0.497070 0.902594
vt 0.183483 0.587461
vt 0.685473 0.717360
s 0
usemtl Material.001
f 2/1/1 3/2/1 1/3/1
f 4/4/2 7/5/2 3/6/2
f 8/7/3 5/8/3 7/9/3
f 6/10/4 1/11/4 5/12/4
f 7/13/5 1/14/5 3/15/5
f 4/16/6 6/17/6 8/18/6
f 2/1/1 4/19/1 3/2/1
f 4/4/2 8/20/2 7/5/2
f 8/7/3 6/21/3 5/8/3
f 6/10/4 2/22/4 1/11/4
f 7/13/5 5/23/5 1/14/5
f 4/16/6 2/24/6 6/17/6
